<svg width="65" height="65" viewBox="0 0 65 65" fill="none" xmlns="http://www.w3.org/2000/svg">
<rect width="1.75676" height="1.75676" rx="0.878381" fill="white" fill-opacity="0.08"/>
<rect x="7.02734" width="1.75676" height="1.75676" rx="0.878381" fill="white" fill-opacity="0.08"/>
<rect x="14.0547" width="1.75676" height="1.75676" rx="0.878381" fill="white" fill-opacity="0.08"/>
<rect x="21.082" width="1.75676" height="1.75676" rx="0.878381" fill="white" fill-opacity="0.08"/>
<rect x="28.1094" width="1.75676" height="1.75676" rx="0.878381" fill="white" fill-opacity="0.08"/>
<rect x="35.1367" width="1.75676" height="1.75676" rx="0.878381" fill="white" fill-opacity="0.08"/>
<rect x="42.1621" width="1.75676" height="1.75676" rx="0.878381" fill="white" fill-opacity="0.08"/>
<rect x="49.1895" width="1.75676" height="1.75676" rx="0.878381" fill="white" fill-opacity="0.08"/>
<rect x="56.2168" width="1.75676" height="1.75676" rx="0.878381" fill="white" fill-opacity="0.08"/>
<rect x="63.2441" width="1.75676" height="1.75676" rx="0.878381" fill="white" fill-opacity="0.08"/>
<rect y="7.02734" width="1.75676" height="1.75676" rx="0.878381" fill="white" fill-opacity="0.08"/>
<rect x="7.02734" y="7.02734" width="1.75676" height="1.75676" rx="0.878381" fill="white" fill-opacity="0.08"/>
<rect x="14.0547" y="7.02734" width="1.75676" height="1.75676" rx="0.878381" fill="white" fill-opacity="0.08"/>
<rect x="21.082" y="7.02734" width="1.75676" height="1.75676" rx="0.878381" fill="white" fill-opacity="0.08"/>
<rect x="28.1094" y="7.02734" width="1.75676" height="1.75676" rx="0.878381" fill="white" fill-opacity="0.08"/>
<rect x="35.1367" y="7.02734" width="1.75676" height="1.75676" rx="0.878381" fill="white" fill-opacity="0.08"/>
<rect x="42.1621" y="7.02734" width="1.75676" height="1.75676" rx="0.878381" fill="white" fill-opacity="0.08"/>
<rect x="49.1895" y="7.02734" width="1.75676" height="1.75676" rx="0.878381" fill="white" fill-opacity="0.08"/>
<rect x="56.2168" y="7.02734" width="1.75676" height="1.75676" rx="0.878381" fill="white" fill-opacity="0.08"/>
<rect x="63.2441" y="7.02734" width="1.75676" height="1.75676" rx="0.878381" fill="white" fill-opacity="0.08"/>
<rect y="14.0542" width="1.75676" height="1.75676" rx="0.878381" fill="white" fill-opacity="0.08"/>
<rect x="7.02734" y="14.0542" width="1.75676" height="1.75676" rx="0.878381" fill="white" fill-opacity="0.08"/>
<rect x="14.0547" y="14.0542" width="1.75676" height="1.75676" rx="0.878381" fill="white" fill-opacity="0.08"/>
<rect x="21.082" y="14.0542" width="1.75676" height="1.75676" rx="0.878381" fill="white" fill-opacity="0.08"/>
<rect x="28.1094" y="14.0542" width="1.75676" height="1.75676" rx="0.878381" fill="white" fill-opacity="0.08"/>
<rect x="35.1367" y="14.0542" width="1.75676" height="1.75676" rx="0.878381" fill="white" fill-opacity="0.08"/>
<rect x="42.1621" y="14.0542" width="1.75676" height="1.75676" rx="0.878381" fill="white" fill-opacity="0.08"/>
<rect x="49.1895" y="14.0542" width="1.75676" height="1.75676" rx="0.878381" fill="white" fill-opacity="0.08"/>
<rect x="56.2168" y="14.0542" width="1.75676" height="1.75676" rx="0.878381" fill="white" fill-opacity="0.08"/>
<rect x="63.2441" y="14.0542" width="1.75676" height="1.75676" rx="0.878381" fill="white" fill-opacity="0.08"/>
<rect y="21.0811" width="1.75676" height="1.75676" rx="0.878381" fill="white" fill-opacity="0.08"/>
<rect x="7.02734" y="21.0811" width="1.75676" height="1.75676" rx="0.878381" fill="white" fill-opacity="0.08"/>
<rect x="14.0547" y="21.0811" width="1.75676" height="1.75676" rx="0.878381" fill="white" fill-opacity="0.08"/>
<rect x="21.082" y="21.0811" width="1.75676" height="1.75676" rx="0.878381" fill="white" fill-opacity="0.08"/>
<rect x="28.1094" y="21.0811" width="1.75676" height="1.75676" rx="0.878381" fill="white" fill-opacity="0.08"/>
<rect x="35.1367" y="21.0811" width="1.75676" height="1.75676" rx="0.878381" fill="white" fill-opacity="0.08"/>
<rect x="42.1621" y="21.0811" width="1.75676" height="1.75676" rx="0.878381" fill="white" fill-opacity="0.08"/>
<rect x="49.1895" y="21.0811" width="1.75676" height="1.75676" rx="0.878381" fill="white" fill-opacity="0.08"/>
<rect x="56.2168" y="21.0811" width="1.75676" height="1.75676" rx="0.878381" fill="white" fill-opacity="0.08"/>
<rect x="63.2441" y="21.0811" width="1.75676" height="1.75676" rx="0.878381" fill="white" fill-opacity="0.08"/>
<rect y="28.1079" width="1.75676" height="1.75676" rx="0.878381" fill="white" fill-opacity="0.08"/>
<rect x="7.02734" y="28.1079" width="1.75676" height="1.75676" rx="0.878381" fill="white" fill-opacity="0.08"/>
<rect x="14.0547" y="28.1079" width="1.75676" height="1.75676" rx="0.878381" fill="white" fill-opacity="0.08"/>
<rect x="21.082" y="28.1079" width="1.75676" height="1.75676" rx="0.878381" fill="white" fill-opacity="0.08"/>
<rect x="28.1094" y="28.1079" width="1.75676" height="1.75676" rx="0.878381" fill="white" fill-opacity="0.08"/>
<rect x="35.1367" y="28.1079" width="1.75676" height="1.75676" rx="0.878381" fill="white" fill-opacity="0.08"/>
<rect x="42.1621" y="28.1079" width="1.75676" height="1.75676" rx="0.878381" fill="white" fill-opacity="0.08"/>
<rect x="49.1895" y="28.1079" width="1.75676" height="1.75676" rx="0.878381" fill="white" fill-opacity="0.08"/>
<rect x="56.2168" y="28.1079" width="1.75676" height="1.75676" rx="0.878381" fill="white" fill-opacity="0.08"/>
<rect x="63.2441" y="28.1079" width="1.75676" height="1.75676" rx="0.878381" fill="white" fill-opacity="0.08"/>
<rect y="35.1353" width="1.75676" height="1.75676" rx="0.878381" fill="white" fill-opacity="0.08"/>
<rect x="7.02734" y="35.1353" width="1.75676" height="1.75676" rx="0.878381" fill="white" fill-opacity="0.08"/>
<rect x="14.0547" y="35.1353" width="1.75676" height="1.75676" rx="0.878381" fill="white" fill-opacity="0.08"/>
<rect x="21.082" y="35.1353" width="1.75676" height="1.75676" rx="0.878381" fill="white" fill-opacity="0.08"/>
<rect x="28.1094" y="35.1353" width="1.75676" height="1.75676" rx="0.878381" fill="white" fill-opacity="0.08"/>
<rect x="35.1367" y="35.1353" width="1.75676" height="1.75676" rx="0.878381" fill="white" fill-opacity="0.08"/>
<rect x="42.1621" y="35.1353" width="1.75676" height="1.75676" rx="0.878381" fill="white" fill-opacity="0.08"/>
<rect x="49.1895" y="35.1353" width="1.75676" height="1.75676" rx="0.878381" fill="white" fill-opacity="0.08"/>
<rect x="56.2168" y="35.1353" width="1.75676" height="1.75676" rx="0.878381" fill="white" fill-opacity="0.08"/>
<rect x="63.2441" y="35.1353" width="1.75676" height="1.75676" rx="0.878381" fill="white" fill-opacity="0.08"/>
<rect y="42.1621" width="1.75676" height="1.75676" rx="0.878381" fill="white" fill-opacity="0.08"/>
<rect y="48.9395" width="1.75676" height="1.75676" rx="0.878381" fill="white" fill-opacity="0.08"/>
<rect y="55.7168" width="1.75676" height="1.75676" rx="0.878381" fill="white" fill-opacity="0.08"/>
<rect y="62.4941" width="1.75676" height="1.75676" rx="0.878381" fill="white" fill-opacity="0.08"/>
<rect x="7.02734" y="42.1621" width="1.75676" height="1.75676" rx="0.878381" fill="white" fill-opacity="0.08"/>
<rect x="7.02734" y="48.9395" width="1.75676" height="1.75676" rx="0.878381" fill="white" fill-opacity="0.08"/>
<rect x="7.02734" y="55.7168" width="1.75676" height="1.75676" rx="0.878381" fill="white" fill-opacity="0.08"/>
<rect x="7.02734" y="62.4941" width="1.75676" height="1.75676" rx="0.878381" fill="white" fill-opacity="0.08"/>
<rect x="14.0547" y="42.1621" width="1.75676" height="1.75676" rx="0.878381" fill="white" fill-opacity="0.08"/>
<rect x="14.0547" y="48.9395" width="1.75676" height="1.75676" rx="0.878381" fill="white" fill-opacity="0.08"/>
<rect x="14.0547" y="55.7168" width="1.75676" height="1.75676" rx="0.878381" fill="white" fill-opacity="0.08"/>
<rect x="14.0547" y="62.4941" width="1.75676" height="1.75676" rx="0.878381" fill="white" fill-opacity="0.08"/>
<rect x="21.082" y="42.1621" width="1.75676" height="1.75676" rx="0.878381" fill="white" fill-opacity="0.08"/>
<rect x="21.082" y="48.9395" width="1.75676" height="1.75676" rx="0.878381" fill="white" fill-opacity="0.08"/>
<rect x="21.082" y="55.7168" width="1.75676" height="1.75676" rx="0.878381" fill="white" fill-opacity="0.08"/>
<rect x="21.082" y="62.4941" width="1.75676" height="1.75676" rx="0.878381" fill="white" fill-opacity="0.08"/>
<rect x="28.1094" y="42.1621" width="1.75676" height="1.75676" rx="0.878381" fill="white" fill-opacity="0.08"/>
<rect x="28.1094" y="48.9395" width="1.75676" height="1.75676" rx="0.878381" fill="white" fill-opacity="0.08"/>
<rect x="28.1094" y="55.7168" width="1.75676" height="1.75676" rx="0.878381" fill="white" fill-opacity="0.08"/>
<rect x="28.1094" y="62.4941" width="1.75676" height="1.75676" rx="0.878381" fill="white" fill-opacity="0.08"/>
<rect x="35.1367" y="42.1621" width="1.75676" height="1.75676" rx="0.878381" fill="white" fill-opacity="0.08"/>
<rect x="35.1367" y="48.9395" width="1.75676" height="1.75676" rx="0.878381" fill="white" fill-opacity="0.08"/>
<rect x="35.1367" y="55.7168" width="1.75676" height="1.75676" rx="0.878381" fill="white" fill-opacity="0.08"/>
<rect x="35.1367" y="62.4941" width="1.75676" height="1.75676" rx="0.878381" fill="white" fill-opacity="0.08"/>
<rect x="42.1621" y="42.1621" width="1.75676" height="1.75676" rx="0.878381" fill="white" fill-opacity="0.08"/>
<rect x="42.1621" y="48.9395" width="1.75676" height="1.75676" rx="0.878381" fill="white" fill-opacity="0.08"/>
<rect x="42.1621" y="55.7168" width="1.75676" height="1.75676" rx="0.878381" fill="white" fill-opacity="0.08"/>
<rect x="42.1621" y="62.4941" width="1.75676" height="1.75676" rx="0.878381" fill="white" fill-opacity="0.08"/>
<rect x="49.1895" y="42.1621" width="1.75676" height="1.75676" rx="0.878381" fill="white" fill-opacity="0.08"/>
<rect x="49.1895" y="48.9395" width="1.75676" height="1.75676" rx="0.878381" fill="white" fill-opacity="0.08"/>
<rect x="49.1895" y="55.7168" width="1.75676" height="1.75676" rx="0.878381" fill="white" fill-opacity="0.08"/>
<rect x="49.1895" y="62.4941" width="1.75676" height="1.75676" rx="0.878381" fill="white" fill-opacity="0.08"/>
<rect x="56.2168" y="42.1621" width="1.75676" height="1.75676" rx="0.878381" fill="white" fill-opacity="0.08"/>
<rect x="56.2168" y="48.9395" width="1.75676" height="1.75676" rx="0.878381" fill="white" fill-opacity="0.08"/>
<rect x="56.2168" y="55.7168" width="1.75676" height="1.75676" rx="0.878381" fill="white" fill-opacity="0.08"/>
<rect x="56.2168" y="62.4941" width="1.75676" height="1.75676" rx="0.878381" fill="white" fill-opacity="0.08"/>
<rect x="63.2441" y="42.1621" width="1.75676" height="1.75676" rx="0.878381" fill="white" fill-opacity="0.08"/>
<rect x="63.2441" y="48.9395" width="1.75676" height="1.75676" rx="0.878381" fill="white" fill-opacity="0.08"/>
<rect x="63.2441" y="55.7168" width="1.75676" height="1.75676" rx="0.878381" fill="white" fill-opacity="0.08"/>
<rect x="63.2441" y="62.4941" width="1.75676" height="1.75676" rx="0.878381" fill="white" fill-opacity="0.08"/>
</svg>
